<svg version="1.1" id="Layer_1" xmlns="http://www.w3.org/2000/svg" xmlns:xlink="http://www.w3.org/1999/xlink" x="0px" y="0px"
	 width="100%" viewBox="0 0 122 112" enable-background="new 0 0 122 112" xml:space="preserve">
<path fill="#FEFEFE" opacity="1.000000" stroke="none" 
	d="
M72.000000,113.000000 
	C48.000000,113.000000 24.500000,113.000000 1.000000,113.000000 
	C1.000000,75.666664 1.000000,38.333332 1.000000,1.000000 
	C41.666668,1.000000 82.333336,1.000000 123.000000,1.000000 
	C123.000000,38.333332 123.000000,75.666664 123.000000,113.000000 
	C106.166664,113.000000 89.333336,113.000000 72.000000,113.000000 
M31.645201,8.001617 
	C14.640017,12.370831 4.563306,28.103945 8.410230,44.279171 
	C12.297308,60.623230 27.900110,70.401810 44.604359,66.974518 
	C51.057190,65.650558 57.501942,64.280548 63.976738,63.072868 
	C67.683846,62.381420 69.048096,59.553265 66.705742,56.611137 
	C65.158905,54.668205 63.254860,53.006714 61.486073,51.243973 
	C55.865875,45.642967 53.935871,45.520248 47.471558,50.315327 
	C38.593582,56.900803 26.046953,52.871792 22.738020,42.353081 
	C20.872599,36.423119 22.126062,31.123554 26.371778,26.659605 
	C31.085821,21.703257 36.829845,20.661572 43.328331,22.496756 
	C47.851189,23.774017 51.448818,22.092274 52.769577,18.419918 
	C54.192032,14.464797 52.355869,10.205843 47.677719,9.165277 
	C42.760906,8.071625 37.556911,8.269088 31.645201,8.001617 
M107.339951,18.224398 
	C91.139977,0.701493 63.651768,5.260322 55.964111,26.744915 
	C54.210815,31.644827 55.588520,35.567226 59.626060,37.170723 
	C63.511429,38.713783 67.047043,36.946735 69.021454,32.248730 
	C71.726097,25.813164 76.370499,22.001663 83.410873,21.670792 
	C89.996231,21.361300 95.105820,24.227819 98.172874,30.057098 
	C101.551514,36.478596 100.481415,42.578541 96.071350,48.234417 
	C92.528702,52.777851 92.506058,56.340763 95.860092,59.201122 
	C99.279709,62.117413 103.508102,61.309715 107.107147,57.052731 
	C116.387245,46.076180 116.649773,31.458536 107.339951,18.224398 
M70.880470,73.380600 
	C67.874977,76.881630 64.869484,80.382660 61.809082,83.947639 
	C59.506653,81.743752 58.443634,80.699486 57.351929,79.686134 
	C53.765118,76.356766 49.656132,76.166183 46.772541,79.181145 
	C44.049473,82.028267 44.119183,86.247910 47.169434,89.470810 
	C50.488731,92.977989 54.007538,96.295433 57.384804,99.748955 
	C59.881832,102.302353 62.207474,102.173950 64.680153,99.685028 
	C73.250504,91.058342 81.916496,82.526138 90.439796,73.853508 
	C93.875351,70.357758 93.879143,66.184906 90.802322,63.258026 
	C87.727951,60.333466 84.170731,60.405525 80.598816,63.725521 
	C77.428505,66.672234 74.445969,69.820961 70.880470,73.380600 
z"/>
<path fill="#4A80DC" opacity="1.000000" stroke="none" 
	d="
M32.061806,7.951987 
	C37.556911,8.269088 42.760906,8.071625 47.677719,9.165277 
	C52.355869,10.205843 54.192032,14.464797 52.769577,18.419918 
	C51.448818,22.092274 47.851189,23.774017 43.328331,22.496756 
	C36.829845,20.661572 31.085821,21.703257 26.371778,26.659605 
	C22.126062,31.123554 20.872599,36.423119 22.738020,42.353081 
	C26.046953,52.871792 38.593582,56.900803 47.471558,50.315327 
	C53.935871,45.520248 55.865875,45.642967 61.486073,51.243973 
	C63.254860,53.006714 65.158905,54.668205 66.705742,56.611137 
	C69.048096,59.553265 67.683846,62.381420 63.976738,63.072868 
	C57.501942,64.280548 51.057190,65.650558 44.604359,66.974518 
	C27.900110,70.401810 12.297308,60.623230 8.410230,44.279171 
	C4.563306,28.103945 14.640017,12.370831 32.061806,7.951987 
z"/>
<path fill="#E6755A" opacity="1.000000" stroke="none" 
	d="
M107.567223,18.502815 
	C116.649773,31.458536 116.387245,46.076180 107.107147,57.052731 
	C103.508102,61.309715 99.279709,62.117413 95.860092,59.201122 
	C92.506058,56.340763 92.528702,52.777851 96.071350,48.234417 
	C100.481415,42.578541 101.551514,36.478596 98.172874,30.057098 
	C95.105820,24.227819 89.996231,21.361300 83.410873,21.670792 
	C76.370499,22.001663 71.726097,25.813164 69.021454,32.248730 
	C67.047043,36.946735 63.511429,38.713783 59.626060,37.170723 
	C55.588520,35.567226 54.210815,31.644827 55.964111,26.744915 
	C63.651768,5.260322 91.139977,0.701493 107.567223,18.502815 
z"/>
<path fill="#64C78A" opacity="1.000000" stroke="none" 
	d="
M71.130508,73.130554 
	C74.445969,69.820961 77.428505,66.672234 80.598816,63.725521 
	C84.170731,60.405525 87.727951,60.333466 90.802322,63.258026 
	C93.879143,66.184906 93.875351,70.357758 90.439796,73.853508 
	C81.916496,82.526138 73.250504,91.058342 64.680153,99.685028 
	C62.207474,102.173950 59.881832,102.302353 57.384804,99.748955 
	C54.007538,96.295433 50.488731,92.977989 47.169434,89.470810 
	C44.119183,86.247910 44.049473,82.028267 46.772541,79.181145 
	C49.656132,76.166183 53.765118,76.356766 57.351929,79.686134 
	C58.443634,80.699486 59.506653,81.743752 61.809082,83.947639 
	C64.869484,80.382660 67.874977,76.881630 71.130508,73.130554 
z"/>
</svg>